<?xml version="1.0" standalone="no"?>
<!DOCTYPE svg PUBLIC "-//W3C//DTD SVG 20010904//EN"
 "http://www.w3.org/TR/2001/REC-SVG-20010904/DTD/svg10.dtd">
<svg version="1.0" xmlns="http://www.w3.org/2000/svg"
 width="940.000000pt" height="940.000000pt" viewBox="0 0 940.000000 940.000000"
 preserveAspectRatio="xMidYMid meet">
<metadata>
Created by potrace 1.16, written by Peter Selinger 2001-2019
</metadata>
<g transform="translate(0.000000,940.000000) scale(0.100000,-0.100000)"
fill="#000000" stroke="none">
<path d="M0 7865 c0 -1702 -6 -1567 67 -1500 21 19 58 42 83 50 25 8 67 31 94
50 27 19 53 35 57 35 9 0 62 23 199 88 41 19 108 48 149 64 41 17 82 34 90 38
9 5 35 13 59 20 24 6 52 20 63 31 10 10 29 19 40 19 12 0 51 14 88 31 36 17
75 35 86 39 11 4 54 23 95 43 151 71 209 97 219 97 10 0 89 24 121 37 8 3 18
5 22 5 4 -1 22 7 40 18 18 11 39 20 46 20 8 0 25 8 38 19 13 10 45 22 71 26
27 4 59 13 73 20 25 13 117 46 195 69 22 7 65 24 95 38 30 14 84 35 120 46 36
12 79 25 95 31 17 6 64 20 105 32 89 25 199 64 257 90 24 10 48 19 54 19 6 0
32 7 58 15 25 8 73 22 106 32 33 9 71 23 85 30 14 7 36 13 50 13 14 0 43 7 65
15 22 8 60 14 85 15 26 0 62 9 84 21 27 14 58 21 103 21 35 0 67 -2 70 -6 13
-13 5 -87 -13 -113 -22 -32 -44 -98 -44 -131 0 -13 -9 -40 -19 -60 -11 -20
-30 -62 -42 -92 -13 -30 -31 -64 -41 -76 -10 -11 -18 -27 -18 -36 0 -39 -96
-268 -119 -282 -6 -4 -11 -14 -11 -22 0 -23 -66 -113 -106 -145 -19 -15 -51
-33 -71 -40 -19 -6 -47 -17 -61 -25 -15 -8 -31 -14 -37 -14 -5 0 -33 -18 -62
-39 -28 -22 -62 -45 -75 -51 -48 -25 -118 -74 -118 -82 0 -4 -5 -8 -11 -8 -6
0 -23 -8 -37 -19 -15 -10 -42 -22 -59 -26 -19 -4 -41 -18 -53 -34 -11 -16 -41
-38 -67 -49 -27 -11 -59 -30 -72 -41 -13 -12 -30 -21 -37 -21 -7 0 -19 -6 -26
-12 -24 -22 -77 -58 -86 -58 -5 0 -19 -11 -32 -25 -13 -13 -46 -36 -74 -51
-28 -14 -60 -35 -72 -45 -11 -10 -26 -19 -33 -19 -6 0 -22 -10 -35 -22 -12
-13 -40 -35 -62 -50 -21 -14 -55 -40 -74 -57 -19 -17 -38 -31 -42 -31 -4 0
-26 -18 -50 -40 -24 -22 -68 -55 -98 -72 -30 -17 -67 -43 -81 -57 -33 -33
-113 -91 -125 -91 -5 0 -26 -18 -48 -40 -21 -21 -53 -46 -72 -55 -18 -8 -42
-27 -52 -40 -11 -14 -26 -25 -35 -25 -8 0 -31 -16 -51 -35 -21 -19 -44 -35
-51 -35 -8 0 -22 -11 -31 -25 -9 -14 -31 -32 -48 -40 -17 -9 -65 -45 -106 -81
-41 -36 -91 -75 -110 -85 -19 -11 -62 -39 -95 -64 -69 -51 -137 -86 -215 -110
-30 -10 -64 -25 -75 -35 -11 -9 -46 -29 -77 -45 -69 -32 -88 -52 -67 -66 13
-10 39 -8 158 10 70 10 125 -4 155 -40 28 -32 84 -69 107 -69 8 0 28 -13 44
-30 15 -16 40 -32 54 -35 43 -10 102 -69 111 -112 14 -59 9 -448 -6 -518 -7
-33 -13 -73 -13 -88 -1 -15 -7 -38 -15 -50 -8 -12 -18 -44 -22 -72 -3 -27 -17
-70 -30 -95 -13 -25 -24 -57 -24 -73 0 -32 -42 -80 -63 -71 -8 3 -17 -2 -20
-10 -4 -9 -18 -16 -32 -16 -14 0 -33 -4 -43 -10 -51 -28 -171 -80 -185 -80 -9
0 -18 -4 -21 -9 -4 -5 -25 -12 -49 -16 -51 -8 -127 -35 -127 -45 0 -4 -21 -11
-47 -15 -27 -4 -74 -19 -105 -33 l-58 -26 0 -209 0 -209 28 7 c23 5 38 -2 78
-33 49 -40 147 -92 171 -92 7 0 20 -14 29 -31 19 -37 9 -69 -31 -101 -13 -10
-27 -28 -31 -40 -9 -29 -61 -115 -96 -158 -15 -19 -28 -38 -28 -43 0 -5 -9
-20 -20 -34 -11 -14 -20 -34 -20 -44 0 -11 -7 -19 -15 -19 -8 0 -15 -5 -15
-11 0 -5 -11 -27 -25 -47 -19 -28 -25 -50 -25 -89 0 -29 5 -53 10 -53 6 0 10
4 10 9 0 6 13 25 30 43 17 18 30 39 30 48 0 21 36 79 72 116 31 31 88 126 88
146 0 6 15 31 33 57 17 25 37 55 44 66 50 82 73 127 73 138 0 8 9 26 20 40 12
14 30 46 41 71 11 25 24 48 29 51 13 8 80 151 80 170 0 8 4 15 9 15 21 0 189
368 232 510 11 36 24 74 29 85 17 38 38 110 45 155 7 49 27 141 52 236 21 83
13 463 -11 537 -11 35 -13 54 -6 68 23 41 56 43 159 5 24 -9 51 -16 61 -16 27
0 93 -58 112 -98 10 -20 18 -51 18 -68 0 -17 3 -46 6 -64 8 -40 23 -21 24 30
1 43 30 80 63 80 49 0 206 -73 316 -147 19 -13 52 -28 73 -35 22 -6 45 -19 51
-28 7 -10 23 -21 37 -25 25 -8 98 -53 135 -85 11 -9 45 -27 75 -40 30 -12 70
-35 88 -51 23 -20 43 -29 68 -29 30 0 37 5 49 34 12 29 20 34 72 45 89 19 289
40 315 34 36 -10 96 -50 109 -75 7 -12 33 -49 59 -83 26 -33 60 -84 76 -114
15 -29 34 -56 42 -58 7 -3 20 -19 28 -35 16 -31 53 -50 96 -50 15 0 30 -4 33
-9 15 -23 236 5 320 41 25 11 68 22 95 26 57 8 164 -11 181 -32 6 -8 17 -14
23 -14 16 0 105 -62 140 -96 15 -16 37 -47 47 -69 10 -22 39 -60 63 -85 24
-25 50 -58 59 -75 8 -16 41 -57 72 -90 31 -33 65 -76 76 -96 12 -20 34 -44 50
-53 41 -24 62 -61 61 -103 -1 -29 -12 -47 -57 -94 -30 -31 -55 -63 -55 -70 0
-7 -12 -25 -26 -39 -14 -14 -36 -41 -49 -60 -90 -135 -139 -201 -178 -242 -25
-25 -51 -57 -59 -71 -7 -13 -26 -44 -43 -68 -28 -42 -45 -79 -66 -144 -5 -16
-16 -44 -24 -62 -18 -37 -32 -101 -44 -194 -5 -36 -14 -76 -21 -90 -8 -13 -17
-40 -21 -59 -5 -19 -13 -55 -18 -80 -13 -58 -14 -251 -1 -229 25 43 46 134 70
309 7 47 15 92 19 100 4 8 15 47 25 85 10 39 22 88 27 110 6 22 21 56 33 75
13 19 28 51 35 70 17 47 77 136 194 286 104 135 131 172 143 201 8 18 32 50
54 73 22 22 40 47 40 54 0 8 7 16 15 20 8 3 15 11 15 17 0 18 32 38 62 39 31
0 94 -44 158 -111 67 -70 68 -74 75 -279 6 -192 11 -261 28 -410 8 -69 15
-134 15 -145 2 -68 29 -223 43 -240 4 -5 10 -30 14 -55 9 -62 23 -109 43 -146
25 -47 91 -116 103 -108 7 4 3 14 -9 28 -33 35 -82 131 -82 158 0 15 -5 28
-10 30 -6 2 -15 41 -20 88 -6 47 -19 128 -30 180 -28 130 -50 342 -50 477 0
64 -4 114 -10 118 -14 9 -13 118 2 150 26 58 125 11 152 -73 9 -26 20 -92 25
-147 30 -300 42 -379 71 -470 11 -33 22 -80 26 -105 4 -27 18 -60 35 -82 16
-20 29 -43 29 -50 0 -8 20 -34 45 -58 25 -24 45 -50 45 -56 0 -7 44 -41 98
-77 53 -36 106 -74 116 -86 11 -12 23 -21 28 -21 5 0 55 -22 111 -49 159 -77
197 -91 223 -85 20 5 22 9 13 25 -5 10 -18 19 -28 19 -10 0 -24 7 -31 15 -7 8
-22 15 -34 15 -12 0 -45 16 -73 35 -29 19 -56 35 -61 35 -5 0 -16 7 -23 16 -7
9 -38 27 -68 40 -31 14 -58 28 -61 33 -3 4 -24 18 -47 31 -24 13 -43 27 -43
32 0 4 -10 8 -22 8 -16 0 -28 11 -38 33 -8 17 -25 36 -37 42 -13 5 -23 13 -23
18 0 11 -51 90 -67 103 -7 6 -17 42 -23 80 -5 38 -18 100 -29 138 -10 38 -17
75 -14 83 3 8 1 24 -5 36 -11 21 -21 87 -41 252 -5 38 -5 79 -1 90 5 11 11 28
14 38 5 15 12 14 74 -18 38 -19 76 -35 84 -35 8 0 37 -11 64 -25 27 -14 57
-25 66 -25 9 0 29 -6 45 -14 15 -8 53 -25 83 -38 55 -23 106 -69 220 -197 70
-80 163 -170 173 -171 5 0 23 -14 40 -30 18 -17 58 -54 90 -83 32 -28 69 -70
82 -92 33 -56 80 -98 148 -133 57 -31 59 -31 183 -26 81 3 133 9 147 18 12 7
45 21 72 31 72 25 113 44 120 55 3 6 24 10 45 10 22 0 45 7 54 16 15 15 28 19
94 31 28 5 32 3 32 -15 0 -41 -119 -159 -205 -203 -108 -55 -205 -107 -218
-117 -6 -5 -41 -19 -76 -31 -35 -12 -70 -28 -78 -36 -8 -8 -30 -15 -50 -15
-20 0 -63 -14 -102 -34 -36 -19 -86 -37 -111 -40 -24 -4 -50 -12 -58 -18 -7
-7 -32 -11 -55 -10 -23 1 -55 -2 -72 -7 -27 -8 -28 -9 -10 -16 11 -4 30 -11
41 -17 12 -5 48 -7 80 -4 33 3 68 6 79 6 11 1 29 7 40 14 11 7 56 23 100 36
44 13 118 41 165 62 47 22 94 43 105 48 36 14 189 91 220 110 17 10 38 19 49
19 18 1 119 81 166 132 14 15 47 58 74 96 28 37 60 79 72 93 25 28 130 225
218 410 15 30 38 75 51 100 14 25 25 53 25 63 0 10 11 37 24 60 13 23 27 62
31 87 6 41 54 180 76 222 5 10 9 28 9 40 1 13 9 41 20 63 11 22 19 51 20 64 0
14 8 52 17 85 14 53 27 71 97 143 44 46 88 83 98 83 24 0 27 -52 5 -123 -9
-33 -21 -82 -27 -110 -26 -142 -90 -361 -130 -451 -17 -36 -30 -73 -30 -82 0
-16 -42 -111 -102 -229 -16 -33 -37 -80 -45 -104 -8 -25 -26 -61 -39 -82 -13
-21 -26 -50 -30 -66 -4 -15 -15 -45 -25 -65 -11 -21 -19 -46 -19 -56 0 -10 -9
-27 -20 -37 -11 -10 -23 -34 -26 -54 -4 -20 -17 -49 -29 -66 -11 -16 -27 -43
-35 -60 -8 -16 -22 -42 -32 -57 -10 -14 -18 -35 -18 -47 0 -11 -11 -32 -25
-47 -13 -14 -22 -31 -19 -35 7 -13 24 -1 24 17 0 8 7 14 16 14 8 0 13 4 9 9
-3 6 3 15 14 21 11 6 26 28 32 50 7 22 27 57 46 77 18 21 33 42 33 47 0 4 15
34 34 65 47 77 106 193 106 209 0 12 44 109 116 257 19 39 34 78 34 89 0 10
18 54 40 98 22 44 40 89 40 100 0 11 13 38 29 61 22 31 34 69 50 150 11 59 25
116 31 127 5 10 15 54 21 97 12 85 27 148 57 233 10 30 22 91 25 134 7 79 17
121 43 184 11 26 19 32 44 32 34 0 71 -16 83 -36 18 -31 189 -104 282 -120 17
-3 41 -9 55 -14 14 -5 52 -16 85 -24 33 -8 81 -22 108 -30 26 -8 47 -13 47
-10 0 2 17 -4 38 -14 37 -19 177 -54 262 -67 44 -6 102 -25 210 -69 30 -13 80
-29 110 -36 30 -7 60 -17 67 -22 6 -5 54 -20 105 -33 51 -13 101 -27 111 -30
13 -6 17 -2 17 18 0 20 -10 29 -60 51 -33 15 -81 33 -108 41 -26 7 -72 22
-102 33 -30 11 -89 30 -130 42 -41 12 -83 26 -92 31 -10 5 -26 9 -36 9 -27 0
-160 36 -175 48 -6 5 -25 12 -42 15 -38 7 -209 52 -300 79 -120 35 -128 37
-208 63 -42 14 -84 25 -91 25 -8 0 -27 11 -43 23 -15 13 -40 27 -56 31 -47 11
-88 56 -94 104 -4 31 -1 47 10 60 9 10 21 51 27 93 18 130 76 367 95 387 7 8
27 17 46 22 155 39 195 51 232 68 23 11 58 25 77 33 96 36 243 166 350 310 73
97 136 205 145 249 4 19 18 61 31 92 13 32 24 67 24 78 0 12 7 42 15 68 8 26
19 88 25 137 5 50 15 123 21 164 11 80 8 179 -9 251 -6 25 -16 74 -23 110 -18
92 -88 229 -146 285 -26 25 -53 45 -60 45 -7 0 -16 6 -20 13 -14 21 -62 37
-114 37 -83 0 -89 7 -89 108 0 48 9 130 20 182 18 86 20 119 14 340 -3 135
-11 263 -16 285 -6 22 -14 85 -19 140 -10 126 -36 295 -54 360 -8 28 -17 77
-21 110 -13 127 -73 325 -140 463 -35 72 -64 138 -64 146 0 7 -7 19 -16 26 -8
8 -21 27 -29 44 -7 17 -34 51 -59 76 -25 25 -45 50 -46 56 0 5 -36 46 -81 89
-44 44 -85 87 -90 96 -5 10 -27 25 -49 35 -22 10 -42 25 -45 34 -3 9 -28 33
-55 54 -82 62 -90 105 -21 107 20 1 59 2 86 3 28 1 395 3 818 4 l767 2 0 175
0 175 -4700 0 -4700 0 0 -1535z m4386 1161 c26 -21 26 -22 9 -63 -16 -39 -112
-133 -137 -133 -11 0 -108 -94 -108 -104 0 -6 -96 -125 -134 -166 -7 -8 -39
-35 -70 -60 -41 -32 -66 -62 -87 -105 -70 -140 -82 -161 -108 -195 -31 -41
-57 -94 -81 -170 -10 -30 -29 -75 -43 -100 -14 -25 -30 -72 -36 -103 -13 -70
-11 -68 -58 -99 -28 -20 -57 -28 -113 -33 -66 -7 -156 -31 -200 -54 -16 -8
-75 -23 -180 -45 -91 -19 -230 -60 -330 -96 -47 -17 -127 -42 -179 -55 -52
-14 -97 -29 -100 -33 -3 -5 -31 -15 -61 -22 -74 -18 -250 -76 -286 -95 -16 -8
-38 -15 -49 -15 -11 0 -38 -9 -60 -19 -22 -11 -58 -27 -80 -36 -22 -9 -57 -26
-78 -36 -21 -10 -44 -19 -52 -19 -8 0 -15 -4 -15 -9 0 -5 -30 -14 -67 -20
-100 -17 -187 -47 -223 -77 -8 -7 -35 -18 -60 -24 -25 -7 -63 -23 -86 -36 -22
-13 -64 -28 -92 -34 -29 -5 -78 -21 -110 -36 -31 -14 -73 -33 -92 -42 -19 -9
-46 -24 -60 -33 -24 -16 -58 -28 -170 -64 -30 -10 -64 -23 -75 -29 -11 -7 -48
-23 -83 -35 -34 -13 -65 -28 -68 -32 -9 -15 -81 -10 -93 5 -12 15 -11 267 4
1196 3 162 8 466 11 674 3 209 10 390 14 402 5 13 19 28 32 35 40 21 345 27
1462 29 594 0 1082 3 1085 6 3 2 292 4 643 3 l639 -1 25 -22z m167 -1126 c160
-13 198 -19 211 -29 6 -5 92 -11 191 -14 99 -3 221 -10 270 -16 50 -6 169 -17
266 -25 97 -8 187 -19 200 -25 13 -5 83 -15 154 -22 102 -9 152 -9 235 1 58 6
152 13 210 15 134 4 344 23 392 36 40 10 602 15 725 6 126 -10 131 -21 114
-250 -7 -83 -16 -221 -21 -305 -6 -99 -16 -179 -30 -229 -19 -71 -22 -109 -25
-468 -4 -322 -12 -708 -20 -945 -2 -45 -22 -126 -36 -146 -5 -5 -14 -40 -21
-77 l-13 -67 -41 0 c-33 0 -43 5 -54 25 -12 23 -12 27 10 42 l23 16 -21 18
c-19 15 -20 18 -5 23 14 6 12 9 -11 21 -36 19 -56 19 -56 1 0 -12 -15 -13 -77
-9 -86 6 -109 13 -45 13 23 0 42 5 42 10 0 6 -29 10 -66 10 -55 0 -65 -3 -60
-15 4 -13 -9 -15 -84 -15 l-90 0 -46 -45 c-39 -37 -47 -52 -52 -91 -3 -34 -2
-45 7 -40 6 4 11 14 11 22 0 8 5 14 10 14 14 0 12 -26 -5 -59 -9 -19 -11 -38
-6 -57 7 -29 8 -29 82 -29 59 0 81 -4 110 -22 30 -19 49 -23 115 -21 71 1 75
2 34 9 l-45 7 50 -4 c48 -4 69 -5 138 -3 97 2 114 -1 127 -27 8 -13 25 -30 39
-37 24 -11 26 -18 33 -107 4 -52 6 -228 5 -392 -3 -356 4 -338 -116 -336 -85
1 -101 -3 -181 -39 -53 -25 -129 -48 -255 -78 -33 -8 -78 -21 -100 -29 -22 -8
-50 -15 -62 -16 -13 0 -51 -9 -85 -19 -35 -11 -88 -24 -118 -29 -30 -6 -127
-24 -215 -41 -147 -29 -177 -31 -365 -31 -235 0 -400 13 -515 40 -44 10 -111
23 -150 30 -38 6 -77 17 -85 24 -22 19 -95 42 -190 62 -47 9 -99 25 -116 35
-17 11 -41 19 -53 19 -19 0 -34 6 -81 31 -65 36 -95 46 -250 85 -85 21 -227
27 -285 12 -41 -11 -53 -19 -67 -48 -19 -38 -24 -115 -8 -125 5 -3 14 -24 20
-46 10 -38 36 -68 136 -160 21 -20 80 -55 129 -79 50 -24 92 -47 95 -50 6 -7
75 -40 85 -40 4 0 23 -13 41 -30 19 -16 53 -34 76 -41 93 -24 194 -62 227 -85
20 -13 40 -24 46 -24 5 0 21 -6 35 -13 14 -7 45 -19 70 -26 25 -7 55 -17 68
-22 13 -5 35 -9 50 -9 15 0 47 -6 72 -15 124 -40 342 -70 510 -70 144 0 329 9
370 19 14 3 63 12 110 20 119 20 240 51 340 88 47 17 110 37 140 45 30 8 73
22 95 33 22 10 58 24 80 30 47 13 203 88 211 101 3 5 49 31 102 56 53 26 100
48 103 50 3 2 13 -12 22 -31 15 -33 15 -38 0 -73 -9 -21 -15 -59 -14 -85 1
-27 -2 -48 -7 -48 -10 0 -27 -52 -43 -130 -5 -30 -13 -67 -16 -82 -3 -16 -9
-28 -13 -28 -12 0 -39 -45 -44 -75 -5 -27 -69 -118 -118 -166 -23 -23 -55 -75
-60 -96 -1 -5 -26 -30 -54 -56 -29 -26 -56 -57 -59 -67 -3 -11 -20 -24 -38
-31 -18 -6 -48 -31 -67 -54 -46 -56 -93 -86 -193 -125 -45 -18 -107 -42 -137
-55 -98 -40 -87 -36 -185 -64 -38 -11 -86 -21 -105 -21 -19 0 -64 -9 -100 -19
-135 -40 -368 -59 -482 -41 -40 7 -102 16 -138 21 -36 5 -99 15 -140 23 -41 8
-78 12 -82 10 -4 -2 -9 0 -13 6 -3 5 -15 10 -25 10 -11 0 -52 15 -92 34 -128
59 -146 66 -161 66 -8 0 -25 8 -38 18 -13 10 -38 24 -54 30 -17 7 -49 29 -70
48 -49 44 -110 84 -128 84 -7 0 -31 15 -53 33 -21 19 -59 48 -84 66 -140 100
-400 349 -400 383 0 15 -8 25 -98 123 -23 26 -45 59 -49 73 -3 15 -17 40 -30
55 -12 16 -23 34 -23 42 0 7 -7 18 -15 25 -30 25 -75 100 -110 185 -7 17 -18
41 -24 55 -6 14 -15 46 -21 71 -5 26 -14 59 -20 74 -18 48 -37 325 -34 510 3
256 14 586 23 750 5 77 5 147 0 156 -12 23 -28 245 -22 305 3 28 0 202 -6 387
-14 407 -21 379 121 519 54 54 98 101 98 105 0 4 14 17 30 28 16 11 30 24 30
28 0 13 84 116 96 116 15 1 73 60 90 92 11 21 14 82 14 275 1 166 5 269 14
313 8 36 17 97 21 134 6 65 9 69 47 98 47 33 74 35 271 19z m-1093 -1192 c17
-28 20 -51 20 -153 0 -132 -16 -180 -62 -189 -50 -10 -145 -26 -189 -31 -52
-7 -140 -64 -160 -105 -7 -14 -20 -34 -29 -45 -9 -11 -27 -47 -40 -80 -13 -33
-29 -64 -35 -70 -18 -15 -52 -128 -71 -234 -24 -135 -16 -400 15 -486 12 -33
28 -89 36 -124 8 -35 21 -72 30 -81 8 -9 15 -20 15 -23 0 -4 14 -35 30 -69 17
-34 30 -66 30 -71 0 -35 180 -237 211 -237 6 0 35 -20 63 -45 40 -34 62 -45
87 -45 48 -1 196 -52 221 -78 20 -19 23 -37 29 -184 8 -170 21 -291 39 -368
31 -132 26 -145 -51 -130 -99 20 -176 14 -279 -20 -86 -28 -158 -43 -278 -57
-36 -4 -46 -1 -66 20 -13 14 -36 32 -52 40 -17 9 -40 36 -55 64 -79 153 -167
265 -233 300 -34 17 -56 21 -109 18 -36 -1 -71 -6 -78 -11 -14 -8 -45 -14
-229 -39 -121 -17 -172 -19 -185 -6 -6 5 -27 14 -47 21 -21 6 -38 15 -38 20 0
4 -10 10 -23 14 -13 3 -50 24 -83 46 -32 22 -62 40 -66 40 -4 0 -29 16 -54 36
-26 19 -65 44 -88 56 -23 11 -43 23 -46 27 -7 8 -50 28 -77 36 -13 4 -23 11
-23 16 0 5 -7 9 -15 9 -15 0 -54 19 -65 31 -14 15 -182 99 -199 99 -11 0 -54
16 -96 36 -42 20 -89 40 -103 44 -15 5 -45 16 -68 24 -50 18 -102 21 -212 11
-74 -7 -86 -6 -110 12 -15 11 -39 24 -52 28 -33 10 -70 53 -70 81 0 30 20 49
75 69 25 10 45 22 45 26 0 5 5 9 11 9 7 0 35 18 63 40 55 44 104 79 149 107
15 10 55 44 89 76 34 32 81 68 105 79 24 11 67 42 96 69 28 26 63 54 77 61 14
6 39 24 55 39 45 40 167 129 177 129 9 0 102 73 177 141 24 21 48 39 53 39 4
0 17 8 27 18 57 51 141 112 156 112 7 0 39 21 72 48 33 26 75 56 93 67 19 11
52 31 75 45 70 42 133 83 187 123 28 20 56 37 62 37 6 0 28 16 48 35 20 19 40
35 44 35 3 0 33 18 66 40 33 22 65 40 72 40 12 0 75 40 142 89 22 17 62 40 90
52 27 12 67 29 89 39 22 10 51 21 65 25 14 4 42 21 63 38 21 16 95 54 165 84
70 30 131 59 137 64 5 5 22 9 37 9 21 0 33 -8 48 -32z m41 -433 c20 -13 85
-153 81 -175 -1 -10 4 -23 13 -30 21 -17 19 -30 -5 -30 -11 0 -20 5 -20 10 0
6 -6 10 -13 10 -17 0 -90 40 -99 54 -5 7 -43 10 -110 9 l-103 -1 -52 -57 c-29
-32 -53 -62 -53 -68 0 -6 -9 -21 -21 -33 -16 -18 -21 -36 -22 -91 -2 -64 -1
-68 21 -71 27 -4 78 14 104 36 12 10 28 12 52 8 21 -4 43 -2 53 5 15 9 30 6
77 -15 32 -14 64 -26 70 -26 6 -1 26 -21 44 -45 18 -25 38 -45 45 -45 7 0 23
-16 35 -35 20 -28 23 -45 21 -97 -1 -35 1 -70 4 -78 12 -33 15 -143 4 -162
-10 -15 -9 -20 3 -28 12 -7 12 -16 4 -49 -7 -26 -7 -45 -1 -57 12 -21 21 -364
12 -449 -3 -33 -10 -66 -14 -74 -11 -17 -79 -31 -105 -21 -11 4 -46 15 -77 24
-31 9 -76 31 -100 49 -24 18 -56 38 -71 45 -16 6 -28 16 -28 22 0 5 -6 10 -13
10 -7 0 -26 18 -43 41 -16 22 -45 57 -65 77 -24 25 -45 63 -64 115 -15 43 -32
80 -36 83 -5 3 -9 14 -9 26 0 11 -6 32 -14 46 -58 116 -79 294 -57 490 14 118
25 167 51 227 10 22 21 51 25 65 4 14 15 43 25 65 10 22 21 47 24 55 15 38 45
73 94 109 50 37 104 52 262 75 19 3 50 -6 71 -19z m3729 -885 c0 -5 -9 -24
-21 -42 -15 -24 -19 -27 -14 -10 5 16 1 30 -11 43 -17 18 -16 19 14 19 18 0
32 -4 32 -10z m159 -77 c-1 -16 -3 -21 -6 -12 -3 12 -15 15 -51 14 -28 -1 -33
-1 -12 2 19 2 39 9 45 14 16 16 25 10 24 -18z m-29 -133 c0 -5 -18 -10 -40
-10 -22 0 -40 5 -40 10 0 6 18 10 40 10 22 0 40 -4 40 -10z m-367 -17 c-7 -2
-19 -2 -25 0 -7 3 -2 5 12 5 14 0 19 -2 13 -5z"/>
<path d="M4785 7059 c-22 -12 -57 -37 -77 -57 -46 -44 -50 -78 -10 -93 24 -9
30 -7 57 24 27 31 36 35 96 40 97 9 152 -14 227 -92 50 -53 92 -77 92 -53 0 4
3 17 6 29 5 18 -7 37 -62 94 -116 120 -233 159 -329 108z"/>
<path d="M6916 7033 c-31 -3 -60 -13 -80 -28 -17 -13 -43 -28 -58 -34 -37 -14
-90 -88 -86 -121 5 -44 35 -36 93 24 30 31 61 56 69 56 7 0 30 7 49 15 20 8
47 15 61 15 28 0 112 -71 122 -104 19 -59 85 -90 99 -46 6 19 -3 50 -15 50 -4
0 -13 15 -20 33 -21 56 -33 77 -44 77 -5 0 -24 13 -41 29 -33 32 -70 40 -149
34z"/>
<path d="M4763 5983 c-37 -25 -29 -60 25 -109 26 -24 58 -55 72 -69 14 -14 43
-34 63 -44 l38 -19 15 23 c14 21 13 26 -4 59 -18 34 -84 110 -128 147 -29 25
-57 29 -81 12z"/>
<path d="M6915 5945 c-92 -67 -135 -121 -135 -170 0 -25 5 -34 21 -38 29 -8
61 6 84 37 11 14 24 26 30 26 5 0 29 19 53 41 36 34 42 46 42 79 0 40 0 40
-37 40 -21 0 -47 -7 -58 -15z"/>
<path d="M4240 5450 c0 -5 -8 -10 -17 -10 -10 0 -31 -7 -48 -16 -16 -8 -44
-13 -62 -11 -18 3 -33 1 -33 -4 0 -5 -18 -9 -40 -9 -29 0 -40 4 -40 15 0 20
-17 19 -29 -2 -8 -15 -13 -16 -30 -5 -18 10 -21 10 -21 -6 0 -10 -5 -23 -12
-30 -14 -14 -38 -82 -29 -82 3 0 12 4 20 9 9 6 19 4 28 -5 17 -17 77 -34 121
-34 17 0 32 -4 32 -10 0 -5 7 -10 15 -10 8 0 15 -7 15 -15 0 -17 16 -20 25 -5
10 16 25 11 25 -8 0 -17 5 -18 67 -9 46 7 72 6 84 -1 21 -14 159 -13 177 1 9
7 9 13 1 23 -9 11 -6 14 15 14 24 0 26 4 26 40 0 22 -4 40 -10 40 -5 0 -10 14
-10 30 0 16 3 29 8 29 4 -1 15 -1 25 0 24 1 22 21 -3 21 -10 0 -24 9 -29 19
-9 17 -19 18 -69 14 -45 -4 -62 -2 -74 11 -19 18 -128 23 -128 6z m-184 -81
c10 -17 -13 -36 -27 -22 -12 12 -4 33 11 33 5 0 12 -5 16 -11z m182 -113 c18
-2 35 -6 38 -9 10 -9 -84 -20 -112 -13 -25 7 -26 8 -8 21 11 8 26 12 34 10 8
-3 30 -7 48 -9z m162 -46 c0 -5 -18 -10 -40 -10 -22 0 -40 5 -40 10 0 6 18 10
40 10 22 0 40 -4 40 -10z"/>
<path d="M6692 5393 c-10 -4 -10 -8 -1 -19 13 -16 29 -10 29 12 0 15 -6 16
-28 7z"/>
<path d="M7208 5153 c6 -2 18 -2 25 0 6 3 1 5 -13 5 -14 0 -19 -2 -12 -5z"/>
<path d="M1256 4328 c-2 -7 -7 -67 -11 -133 -6 -133 -17 -210 -45 -330 -10
-44 -21 -103 -24 -130 -3 -28 -24 -113 -46 -189 -22 -76 -40 -147 -40 -157 0
-10 -4 -20 -9 -23 -4 -3 -14 -26 -21 -51 -7 -25 -16 -48 -21 -50 -4 -3 -11
-31 -14 -63 -4 -31 -13 -67 -21 -79 -8 -12 -14 -31 -14 -42 0 -11 -4 -22 -9
-26 -5 -3 -24 -37 -42 -76 -18 -38 -37 -73 -43 -77 -6 -4 -20 -32 -30 -62 -10
-30 -22 -59 -26 -65 -5 -5 -23 -48 -41 -95 -18 -47 -38 -92 -45 -100 -6 -8
-15 -26 -18 -40 -15 -53 -75 -177 -111 -225 -40 -56 -68 -113 -62 -129 9 -23
24 -20 50 10 12 15 27 32 34 39 12 12 36 64 78 165 10 25 26 56 35 70 20 30
60 116 60 129 0 5 6 14 14 20 8 7 18 27 21 44 10 52 23 80 107 229 27 48 52
104 54 125 3 21 12 52 19 68 26 58 47 120 62 180 8 33 26 93 40 134 13 40 30
103 38 140 7 36 21 93 30 126 9 33 20 89 25 125 5 36 16 101 25 145 35 183 45
394 18 403 -7 2 -15 -2 -17 -10z"/>
<path d="M2816 3047 c-3 -12 -9 -83 -12 -157 -3 -74 -10 -171 -15 -215 -5 -44
-12 -154 -15 -245 -4 -91 -10 -170 -15 -175 -4 -6 -13 -121 -19 -255 -10 -214
-30 -395 -46 -421 -4 -8 -9 -56 -35 -344 -5 -66 -17 -149 -25 -185 -13 -59
-28 -207 -41 -414 -3 -51 -2 -76 5 -72 15 9 24 72 23 150 -1 57 1 67 14 63 10
-5 15 0 14 16 0 12 2 36 5 52 7 38 22 160 41 333 8 72 19 140 24 150 5 10 12
77 16 148 7 172 34 454 45 479 5 11 11 94 14 185 3 91 7 185 11 210 6 51 26
428 31 597 4 105 -6 152 -20 100z"/>
<path d="M1647 2987 c-19 -48 2 -316 45 -576 16 -101 38 -243 48 -315 11 -72
26 -160 35 -196 8 -36 20 -130 26 -210 5 -80 16 -167 23 -195 30 -109 37 -143
47 -215 6 -41 18 -87 25 -102 8 -15 14 -37 14 -50 1 -13 8 -41 16 -63 9 -22
21 -65 27 -95 7 -32 17 -55 25 -55 7 0 16 -6 21 -13 17 -27 19 28 4 81 -26 91
-52 220 -53 263 0 23 -11 75 -24 116 -13 41 -31 121 -40 179 -10 57 -29 158
-43 224 -13 66 -31 193 -38 282 -8 88 -24 203 -35 255 -12 54 -25 166 -31 268
-10 154 -14 185 -41 260 -17 47 -34 105 -37 130 -5 33 -8 40 -14 27z"/>
<path d="M1892 2890 c0 -19 2 -27 5 -17 2 9 2 25 0 35 -3 9 -5 1 -5 -18z"/>
<path d="M7797 2808 c-4 -19 -8 -270 -11 -693 -1 -33 3 -361 7 -729 5 -549 9
-672 21 -685 9 -11 14 -46 15 -106 2 -89 11 -189 31 -334 11 -80 29 -117 32
-65 2 46 -3 89 -12 94 -5 3 -8 16 -8 30 0 14 -5 97 -11 185 -6 88 -13 252 -16
365 -3 113 -10 237 -16 275 -13 89 -12 1087 1 1175 11 73 12 442 1 479 -9 33
-27 37 -34 9z"/>
<path d="M1903 2755 c3 -27 10 -66 16 -85 9 -30 10 -24 6 40 -3 41 -10 79 -16
85 -8 7 -9 -5 -6 -40z"/>
<path d="M4248 2704 c-9 -11 -20 -32 -24 -49 -4 -16 -19 -49 -34 -71 -16 -23
-31 -56 -35 -73 -6 -29 -24 -74 -46 -114 -5 -10 -14 -41 -19 -69 -6 -29 -14
-54 -18 -57 -20 -14 -92 -209 -92 -249 0 -6 -13 -30 -28 -54 -27 -43 -52 -102
-77 -188 -20 -66 -45 -133 -55 -145 -5 -6 -12 -31 -16 -55 -4 -25 -17 -63 -29
-85 -12 -22 -29 -67 -39 -100 -9 -33 -24 -75 -31 -92 -8 -18 -26 -78 -40 -134
-14 -55 -30 -108 -35 -117 -13 -23 -40 -126 -40 -150 0 -11 -6 -25 -14 -31
-15 -13 -30 -76 -21 -91 9 -15 35 0 35 21 0 17 17 63 45 119 7 14 22 66 35
115 12 50 28 104 36 120 7 17 24 64 38 105 52 155 77 225 87 235 5 5 9 20 9
34 0 14 9 48 20 76 55 142 79 214 85 252 4 23 13 47 21 54 8 6 14 20 14 30 0
10 4 20 9 23 4 3 14 26 21 51 7 25 17 48 21 51 5 3 9 13 9 23 0 10 7 24 15 31
8 7 20 31 26 54 5 22 23 66 38 96 15 31 31 74 35 95 4 22 13 47 21 55 7 8 15
26 18 40 8 41 28 92 54 143 16 31 23 60 21 83 -3 35 -4 36 -20 18z"/>
<path d="M1931 2595 c1 -16 5 -41 9 -55 7 -22 8 -20 9 15 0 22 -4 47 -9 55 -7
11 -9 8 -9 -15z"/>
<path d="M1990 2192 c0 -32 7 -81 15 -108 8 -27 15 -64 15 -82 0 -18 5 -43 12
-55 6 -12 13 -36 15 -54 13 -128 25 -207 34 -224 5 -10 10 -75 13 -145 2 -71
9 -142 16 -159 6 -16 14 -69 17 -117 3 -49 10 -88 14 -88 5 0 9 -26 9 -58 0
-33 7 -81 15 -108 8 -27 15 -76 15 -109 0 -40 3 -56 10 -49 11 11 -3 304 -15
324 -3 5 -9 47 -12 92 -3 46 -12 119 -20 163 -7 44 -18 103 -23 130 -5 28 -9
87 -9 132 -1 80 -13 163 -32 213 -5 14 -13 64 -18 112 -6 48 -17 97 -25 110
-8 13 -18 47 -22 76 -9 73 -24 75 -24 4z"/>
<path d="M4377 2118 c-40 -234 -56 -423 -34 -415 12 4 32 94 41 184 2 29 7 57
10 62 11 17 36 166 36 214 0 39 -3 47 -18 47 -16 0 -21 -15 -35 -92z"/>
<path d="M523 2112 c-22 -17 -99 -132 -109 -164 -4 -10 -10 -18 -15 -18 -5 0
-9 -8 -9 -17 0 -17 -67 -124 -122 -194 -15 -20 -28 -43 -28 -51 0 -8 -9 -23
-21 -34 -12 -10 -30 -37 -41 -59 -11 -22 -33 -53 -48 -70 -27 -29 -48 -61 -90
-137 -11 -21 -25 -38 -30 -38 -7 0 -10 -238 -10 -665 l0 -665 180 0 180 0 1
213 c2 338 8 593 15 624 15 69 12 66 66 60 28 -4 55 -10 62 -15 6 -5 29 -15
51 -22 58 -18 158 -62 173 -77 7 -7 19 -13 25 -13 6 0 43 -15 82 -34 38 -19
87 -37 108 -41 20 -3 37 -9 37 -14 0 -10 76 -47 115 -57 17 -4 41 -15 55 -25
14 -10 50 -26 80 -35 30 -9 64 -25 75 -34 26 -23 102 -60 195 -95 41 -16 82
-35 91 -42 8 -7 23 -13 32 -13 9 0 19 -4 22 -10 3 -5 32 -22 63 -37 56 -26 98
-52 137 -84 24 -20 155 -91 155 -84 0 3 28 -14 63 -38 34 -24 83 -55 108 -70
26 -14 49 -33 53 -42 3 -10 18 -15 42 -15 l37 0 -7 97 c-4 54 -11 121 -16 148
-5 28 -12 76 -15 108 -5 43 -10 57 -22 57 -13 0 -15 -9 -10 -59 4 -33 7 -63 8
-68 1 -4 1 -42 0 -84 -1 -101 -9 -104 -126 -45 -50 25 -94 46 -98 46 -5 0 -13
5 -20 10 -7 6 -27 24 -46 40 -19 17 -39 30 -45 30 -13 0 -116 71 -116 81 0 3
-25 17 -55 29 -31 12 -66 30 -78 40 -40 31 -200 110 -237 116 -30 5 -191 76
-240 105 -31 19 -102 49 -115 49 -7 0 -48 16 -89 35 -42 19 -80 35 -85 35 -5
0 -43 18 -84 40 -42 22 -104 51 -139 64 -35 13 -109 47 -166 75 -56 28 -107
51 -112 51 -6 0 -10 5 -10 10 0 6 -10 10 -22 10 -13 0 -48 13 -78 29 -30 16
-86 44 -123 62 -79 38 -131 90 -122 122 10 34 28 67 37 67 4 0 8 6 8 13 0 6
20 39 45 72 25 33 45 62 45 65 0 4 16 23 35 44 19 21 35 48 35 60 0 12 18 42
40 66 22 24 40 50 40 56 0 7 6 14 13 17 7 2 25 29 40 60 16 30 39 70 53 88 13
18 24 38 24 44 0 7 14 31 31 55 37 50 59 100 69 153 8 41 5 44 -27 19z"/>
<path d="M4317 1663 c-4 -3 -7 -36 -6 -72 0 -71 17 -60 18 12 1 20 5 37 11 37
5 0 7 7 4 15 -7 16 -17 19 -27 8z"/>
<path d="M6929 1545 c-19 -24 -39 -45 -45 -45 -6 0 -37 -14 -67 -30 -31 -17
-76 -37 -99 -46 -24 -9 -47 -22 -53 -28 -15 -17 -114 -66 -133 -66 -28 0 -137
-37 -191 -64 -67 -35 -193 -84 -255 -101 -123 -33 -184 -65 -169 -88 5 -8 54
-1 83 13 32 15 119 40 141 40 13 0 38 9 54 20 17 11 39 20 51 20 11 0 88 34
170 75 94 47 171 79 207 86 32 5 73 18 91 29 18 10 44 24 57 32 13 7 51 34 86
61 34 26 67 47 73 47 5 0 10 7 10 15 0 8 5 15 11 15 6 0 8 7 5 15 -3 9 1 18 9
21 8 4 15 10 15 15 0 20 -20 7 -51 -36z"/>
<path d="M4829 1521 c6 -10 28 -26 51 -35 22 -8 48 -24 59 -35 11 -11 30 -25
43 -32 13 -6 46 -27 75 -46 35 -23 61 -33 80 -31 25 3 18 10 -72 69 -121 79
-136 88 -152 82 -7 -3 -13 0 -13 6 0 6 -6 11 -14 11 -7 0 -19 7 -26 15 -19 23
-43 20 -31 -4z"/>
<path d="M4282 1473 c-6 -16 -14 -77 -18 -138 -3 -62 -12 -122 -20 -137 -8
-15 -14 -41 -14 -58 0 -17 -5 -40 -10 -50 -6 -11 -15 -57 -20 -102 -5 -46 -14
-108 -19 -138 -6 -30 -15 -129 -21 -220 -6 -91 -13 -200 -16 -242 -4 -52 -2
-78 5 -78 6 0 11 19 11 44 0 24 7 83 16 132 17 96 28 174 43 299 6 44 15 116
21 160 13 101 18 138 31 250 6 50 15 99 21 110 15 26 24 195 11 195 -6 0 -15
-12 -21 -27z"/>
<path d="M5660 1429 c-13 -8 -12 -12 4 -24 23 -17 96 -20 96 -4 0 6 -7 8 -15
5 -15 -5 -53 10 -65 26 -3 4 -12 3 -20 -3z"/>
<path d="M5170 1332 c0 -13 161 -91 176 -85 21 8 17 23 -7 23 -24 0 -55 15
-84 40 -21 18 -85 35 -85 22z"/>
<path d="M6961 1122 c-12 -43 -21 -84 -21 -90 0 -18 20 -14 26 6 3 9 10 26 14
37 13 31 20 114 11 119 -5 3 -18 -29 -30 -72z"/>
<path d="M6923 977 c-7 -15 -13 -42 -13 -59 0 -17 -7 -39 -16 -49 -8 -9 -19
-41 -23 -71 -4 -29 -14 -67 -23 -83 -20 -37 -41 -123 -32 -136 3 -5 0 -16 -6
-24 -7 -8 -14 -31 -17 -51 -3 -20 -21 -71 -40 -112 -19 -41 -32 -84 -30 -94 3
-10 1 -18 -3 -18 -5 0 -14 -16 -20 -36 -7 -20 -18 -48 -26 -62 -8 -15 -14 -38
-14 -52 0 -14 -9 -43 -20 -65 -25 -48 -25 -65 -2 -65 18 0 19 3 62 135 13 39
29 84 35 100 40 94 67 180 85 277 6 32 15 60 20 63 4 2 11 26 15 52 3 27 17
79 31 116 13 38 24 79 24 91 0 13 7 40 16 61 8 20 14 53 12 73 l-3 37 -12 -28z"/>
<path d="M8628 934 c-5 -4 -8 -37 -8 -73 0 -44 -5 -74 -16 -89 -17 -25 -25
-188 -11 -257 21 -106 67 -438 67 -482 0 -28 4 -33 24 -33 l25 0 -4 103 c-2
56 -7 116 -12 132 -11 35 -5 125 8 125 5 0 9 -15 9 -32 0 -26 3 -30 10 -18 8
11 9 9 5 -11 -4 -15 2 -52 14 -87 12 -34 21 -76 21 -94 0 -18 9 -44 20 -58 11
-14 20 -33 20 -42 0 -10 5 -18 10 -18 13 0 13 94 0 140 -5 19 -14 81 -19 137
-6 57 -15 111 -20 120 -21 42 -53 196 -76 358 -4 28 -9 57 -12 65 -3 8 -7 20
-8 26 -7 31 -41 95 -47 88z"/>
<path d="M2187 793 c-11 -10 -8 -52 5 -76 7 -12 13 -53 15 -91 2 -77 7 -96 24
-96 11 0 10 14 -7 203 -5 63 -17 81 -37 60z"/>
<path d="M3856 735 c-9 -24 -7 -55 3 -55 12 0 22 53 12 63 -5 5 -11 1 -15 -8z"/>
<path d="M4610 696 c0 -33 21 -272 26 -294 3 -14 9 -20 16 -16 13 8 4 218 -12
276 -11 39 -30 60 -30 34z"/>
<path d="M3842 575 c0 -16 2 -22 5 -12 2 9 2 23 0 30 -3 6 -5 -1 -5 -18z"/>
<path d="M3832 515 c0 -16 2 -22 5 -12 2 9 2 23 0 30 -3 6 -5 -1 -5 -18z"/>
<path d="M2230 482 c0 -23 4 -42 9 -42 6 0 7 17 4 38 -8 51 -13 53 -13 4z"/>
<path d="M2578 514 c-5 -4 -8 -32 -7 -63 1 -53 1 -54 10 -22 11 37 8 97 -3 85z"/>
<path d="M3813 379 c-10 -39 -20 -105 -38 -259 -3 -25 -8 -62 -11 -82 -5 -33
-4 -38 14 -38 22 0 32 33 32 109 0 25 7 73 15 106 15 64 18 158 6 189 -6 16
-10 11 -18 -25z"/>
<path d="M4660 248 c0 -31 7 -85 16 -120 20 -76 22 -88 23 -110 1 -11 9 -18
21 -18 23 0 23 0 9 60 -6 25 -12 63 -15 85 -5 55 -27 132 -42 147 -9 9 -12 0
-12 -44z"/>
<path d="M9124 233 c-3 -10 -10 -27 -14 -38 -5 -11 -12 -59 -15 -107 l-7 -88
25 0 c22 0 25 5 30 48 10 84 8 190 -3 197 -5 3 -13 -2 -16 -12z"/>
<path d="M3061 83 c-17 -58 -14 -83 8 -83 14 0 20 9 23 37 5 44 -1 83 -13 83
-4 0 -13 -17 -18 -37z"/>
</g>
</svg>
